nColumns=19
nRows=62
DataType=double
version=3
OpenSimVersion=4.1
endheader
time	ground_force_calcn_l_vx	ground_force_calcn_l_vy	ground_force_calcn_l_vz	ground_force_calcn_l_px	ground_force_calcn_l_py	ground_force_calcn_l_pz	ground_force_calcn_l_mx	ground_force_calcn_l_my	ground_force_calcn_l_mz	ground_force_calcn_r_vx	ground_force_calcn_r_vy	ground_force_calcn_r_vz	ground_force_calcn_r_px	ground_force_calcn_r_py	ground_force_calcn_r_pz	ground_force_calcn_r_mx	ground_force_calcn_r_my	ground_force_calcn_r_mz
5.625	-2.67609	85.4916	-5.6716	-0.32612	-3.61176e-17	0.172663	0.0323357	-1.03301	0.0685309	-12.2806	679.089	63.9242	-0.18253	-2.01793e-17	-0.108593	-0.100636	5.56495	0.523841
5.63499	-2.41946	57.406	-3.4881	-0.332088	-3.67902e-17	0.16374	0.0283533	-0.672732	0.0408766	-11.1814	715.671	63.8783	-0.182182	-2.01448e-17	-0.1067	-0.0918886	5.88137	0.52495
5.64498	-1.82047	34.4732	-1.90557	-0.337402	-3.73895e-17	0.154717	0.0206759	-0.391528	0.0216424	-9.72766	747.988	63.1789	-0.18207	-2.01361e-17	-0.104876	-0.0805363	6.19267	0.523064
5.65497	-1.09053	17.1887	-0.856077	-0.342136	-3.7924e-17	0.14591	0.0119893	-0.188973	0.00941176	-7.97584	774.976	61.902	-0.182167	-2.01503e-17	-0.103172	-0.066852	6.4957	0.518851
5.66496	-0.422906	5.70412	-0.252703	-0.346441	-3.84104e-17	0.137397	0.00449382	-0.0606123	0.00268524	-6.0446	795.867	60.1981	-0.18244	-2.01836e-17	-0.101626	-0.0513664	6.7632	0.511558
5.67496	0	0	0	0	-2.02316e-17	0	0	0	0	-4.06651	810.274	58.2001	-0.18285	-2.02316e-17	-0.100273	-0.0351365	7.00113	0.502874
5.68495	0	0	0	0	-2.02902e-17	0	0	0	0	-2.1574	818.202	56.0296	-0.183361	-2.02902e-17	-0.0991309	-0.018978	7.19748	0.492876
5.69494	0	0	0	0	-2.0356e-17	0	0	0	0	-0.412054	819.988	53.8077	-0.183937	-2.0356e-17	-0.0981901	-0.00368543	7.334	0.481258
5.70493	0	0	0	0	-2.04282e-17	0	0	0	0	1.05863	816.227	51.605	-0.184575	-2.04282e-17	-0.097428	0.00961157	7.41071	0.468533
5.71492	0	0	0	0	-2.05046e-17	0	0	0	0	2.17989	807.747	49.4621	-0.185251	-2.05046e-17	-0.0968139	0.019989	7.40683	0.453554
5.72491	0	0	0	0	-2.05808e-17	0	0	0	0	2.91353	795.523	47.3839	-0.185924	-2.05808e-17	-0.0963237	0.0268431	7.32934	0.436559
5.7349	0	0	0	0	-2.06557e-17	0	0	0	0	3.20833	780.544	45.3677	-0.186585	-2.06557e-17	-0.0959288	0.0295536	7.18999	0.417905
5.74489	0	0	0	0	-2.07311e-17	0	0	0	0	3.05243	763.724	43.421	-0.187249	-2.07311e-17	-0.0955884	0.0279235	6.98649	0.397212
5.75488	0	0	0	0	-2.0807e-17	0	0	0	0	2.47411	745.913	41.5561	-0.187914	-2.0807e-17	-0.0952647	0.0222508	6.70834	0.373733
5.76488	0	0	0	0	-2.08821e-17	0	0	0	0	1.51728	727.931	39.7684	-0.188566	-2.08821e-17	-0.0949376	0.0132549	6.35919	0.347415
5.77487	0	0	0	0	-2.09572e-17	0	0	0	0	0.227559	710.473	37.9993	-0.189215	-2.09572e-17	-0.0945871	0.00190806	5.95723	0.31862
5.78486	0	0	0	0	-2.10322e-17	0	0	0	0	-1.26487	694.118	36.1891	-0.189855	-2.10322e-17	-0.094183	-0.010041	5.51013	0.28728
5.79485	0	0	0	0	-2.1109e-17	0	0	0	0	-2.8541	679.331	34.3211	-0.190506	-2.1109e-17	-0.093721	-0.0210499	5.01027	0.253129
5.80484	0	0	0	0	-2.11883e-17	0	0	0	0	-4.47569	666.428	32.3903	-0.191174	-2.11883e-17	-0.0932209	-0.0300722	4.47774	0.217631
5.81483	0	0	0	0	-2.12677e-17	0	0	0	0	-6.07646	655.497	30.4189	-0.191839	-2.12677e-17	-0.0926987	-0.0361815	3.90307	0.181126
5.82482	0	0	0	0	-2.13441e-17	0	0	0	0	-7.65825	646.465	28.4542	-0.192474	-2.13441e-17	-0.0921877	-0.0389262	3.28592	0.14463
5.83481	0	0	0	0	-2.14136e-17	0	0	0	0	-9.267	639.172	26.5686	-0.193049	-2.14136e-17	-0.0917422	-0.0384545	2.65232	0.110249
5.8448	0	0	0	0	-2.14735e-17	0	0	0	0	-10.9612	633.391	24.8637	-0.193539	-2.14735e-17	-0.0914186	-0.0343891	1.98716	0.0780058
5.8548	0	0	0	0	-2.15202e-17	0	0	0	0	-12.7375	628.876	23.4366	-0.193913	-2.15202e-17	-0.0912569	-0.0260023	1.28379	0.0478435
5.86479	0	0	0	0	-2.15514e-17	0	0	0	0	-14.6466	625.438	22.3476	-0.19415	-2.15514e-17	-0.0913016	-0.0131771	0.562688	0.0201055
5.87478	0	0	0	0	-2.15629e-17	0	0	0	0	-16.7179	622.972	21.6621	-0.194212	-2.15629e-17	-0.0915863	0.00444357	-0.165585	-0.00575775
5.88477	0	0	0	0	-2.15506e-17	0	0	0	0	-18.937	621.439	21.4301	-0.19406	-2.15506e-17	-0.0921232	0.0279489	-0.917178	-0.0316285
5.89476	0	0	0	0	-2.15141e-17	0	0	0	0	-21.3072	620.841	21.6755	-0.193687	-2.15141e-17	-0.0929069	0.0578514	-1.68565	-0.0588515
5.90475	0	0	0	0	-2.14541e-17	0	0	0	0	-23.8472	621.231	22.3543	-0.193099	-2.14541e-17	-0.0939173	0.0941724	-2.45324	-0.0882771
5.91474	0	0	0	0	-2.13717e-17	0	0	0	0	-26.5267	622.679	23.4075	-0.192306	-2.13717e-17	-0.0951121	0.13677	-3.21049	-0.120688
5.92473	0	0	0	0	-2.12706e-17	0	0	0	0	-29.2873	625.255	24.7431	-0.191338	-2.12706e-17	-0.0964285	0.184771	-3.94468	-0.156102
5.93472	0	0	0	0	-2.11562e-17	0	0	0	0	-32.0862	628.953	26.2567	-0.190251	-2.11562e-17	-0.0977866	0.236098	-4.628	-0.193203
5.94472	0	0	0	0	-2.10368e-17	0	0	0	0	-34.8339	633.7	27.8182	-0.189119	-2.10368e-17	-0.0990974	0.289075	-5.25888	-0.230854
5.95471	0	0	0	0	-2.09198e-17	0	0	0	0	-37.4393	639.368	29.3153	-0.18801	-2.09198e-17	-0.100286	0.341748	-5.83619	-0.267592
5.9647	0	0	0	0	-2.08091e-17	0	0	0	0	-39.8378	645.756	30.6601	-0.186966	-2.08091e-17	-0.101298	0.3906	-6.33148	-0.300615
5.97469	0	0	0	0	-2.07075e-17	0	0	0	0	-41.9619	652.618	31.8039	-0.186014	-2.07075e-17	-0.102096	0.432893	-6.73263	-0.328099
5.98468	0	0	0	0	-2.0618e-17	0	0	0	0	-43.7113	659.694	32.6994	-0.185181	-2.0618e-17	-0.10266	0.46658	-7.04165	-0.349037
5.99467	0	0	0	0	-2.05431e-17	0	0	0	0	-45.0262	666.649	33.287	-0.184492	-2.05431e-17	-0.102976	0.490281	-7.259	-0.362455
6.00466	0	0	0	0	-2.04838e-17	0	0	0	0	-45.8882	673.119	33.5136	-0.183956	-2.04838e-17	-0.103046	0.502666	-7.37345	-0.367113
6.01465	0	0	0	0	-2.04367e-17	0	0	0	0	-46.2546	678.793	33.3664	-0.183543	-2.04367e-17	-0.102897	0.503572	-7.38999	-0.363259
6.02464	0	0	0	0	-2.03983e-17	0	0	0	0	-46.1373	683.405	32.8763	-0.183216	-2.03983e-17	-0.102568	0.494502	-7.32477	-0.35237
6.03464	0	0	0	0	-2.03663e-17	0	0	0	0	-45.6176	686.773	32.1296	-0.182954	-2.03663e-17	-0.102101	0.477201	-7.18427	-0.336105
6.04463	0	0	0	0	-2.03379e-17	0	0	0	0	-44.7594	688.907	31.2377	-0.182728	-2.03379e-17	-0.101537	0.453779	-6.98425	-0.316693
6.05462	0	0	0	0	-2.0308e-17	0	0	0	0	-43.6203	690.011	30.2899	-0.18249	-2.0308e-17	-0.100919	0.425658	-6.73331	-0.295577
6.06461	0	0	0	0	-2.02707e-17	0	0	0	0	-42.2967	690.404	29.3581	-0.182187	-2.02707e-17	-0.100295	0.393205	-6.41825	-0.272923
6.0746	0	0	0	0	-2.02222e-17	0	0	0	0	-40.8236	690.468	28.4931	-0.181785	-2.02222e-17	-0.0996864	0.356949	-6.03725	-0.249135
6.08459	0	0	0	0	-2.01638e-17	0	0	0	0	-39.2066	690.555	27.7174	-0.181293	-2.01638e-17	-0.0991078	0.31797	-5.60047	-0.22479
6.09458	0	0	0	0	-2.00964e-17	0	0	0	0	-37.4416	690.961	27.054	-0.180724	-2.00964e-17	-0.0985801	0.275799	-5.08971	-0.199283
6.10457	0	0	0	0	-2.00178e-17	0	0	0	0	-35.4846	691.924	26.5163	-0.180056	-2.00178e-17	-0.0981141	0.230125	-4.48727	-0.171963
6.11456	0	0	0	0	-1.99267e-17	0	0	0	0	-33.2405	693.714	26.0927	-0.179278	-1.99267e-17	-0.0977085	0.181835	-3.79481	-0.142734
6.12456	0	0	0	0	-1.98252e-17	0	0	0	0	-30.6433	696.645	25.7365	-0.17841	-1.98252e-17	-0.0973493	0.131982	-3.00047	-0.110848
6.13455	0	0	0	0	-1.97178e-17	0	0	0	0	-27.6719	701.082	25.3774	-0.177495	-1.97178e-17	-0.097011	0.0822177	-2.08303	-0.0754004
6.14454	0	0	0	0	-1.9605e-17	0	0	0	0	-24.3103	707.472	24.9097	-0.176533	-1.9605e-17	-0.0966386	0.0364682	-1.06129	-0.0373674
6.15453	0	0	0	0	-1.94836e-17	0	0	0	0	-20.6011	716.263	24.2127	-0.175495	-1.94836e-17	-0.0961751	-0.00137759	0.0478961	0.00161909
6.16452	0	0	0	0	-1.93531e-17	0	0	0	0	-16.6683	727.755	23.1897	-0.174371	-1.93531e-17	-0.0955818	-0.0283303	1.23693	0.0394142
6.17451	0	0	0	0	-1.92144e-17	0	0	0	0	-12.6593	741.945	21.8059	-0.173166	-1.92144e-17	-0.0948381	-0.0420953	2.46714	0.0725096
6.1845	0	0	0	0	-1.90656e-17	0	0	0	0	-8.69618	758.397	20.0916	-0.171857	-1.90656e-17	-0.0939478	-0.0423281	3.69145	0.0977943
6.19449	0	0	0	0	-1.89084e-17	0	0	0	0	-4.89519	776.176	18.1435	-0.170458	-1.89084e-17	-0.0929399	-0.0305564	4.84498	0.113254
6.20448	0	0	0	0	-1.8748e-17	0	0	0	0	-1.3058	793.966	16.076	-0.169017	-1.8748e-17	-0.0918669	-0.00971181	5.90506	0.119564
6.21448	0	0	0	0	-1.85885e-17	0	0	0	0	2.0988	810.28	13.9949	-0.167576	-1.85885e-17	-0.0907697	0.0177423	6.84972	0.118307
6.22447	0	0	0	0	-1.84374e-17	0	0	0	0	5.38297	823.609	12.0035	-0.166204	-1.84374e-17	-0.0896671	0.0500156	7.65252	0.11153
6.23446	0	0	0	0	-1.8304e-17	0	0	0	0	8.6149	832.49	10.1961	-0.16499	-1.8304e-17	-0.0885825	0.0860453	8.31488	0.101839
